<?xml version="1.0" encoding="UTF-8"?>
<svg width="1001px" height="1001px" viewBox="0 0 1001 1001" version="1.1" xmlns="http://www.w3.org/2000/svg" xmlns:xlink="http://www.w3.org/1999/xlink">
    <!-- Generator: Sketch 55 (78076) - https://sketchapp.com -->
    <title>编组 71</title>
    <desc>Created with Sketch.</desc>
    <defs>
        <linearGradient x1="47.124926%" y1="54.555003%" x2="65.9618467%" y2="28.2013678%" id="linearGradient-1">
            <stop stop-color="#FEE952" offset="0%"></stop>
            <stop stop-color="#FDB918" offset="100%"></stop>
        </linearGradient>
        <linearGradient x1="-0.0417426176%" y1="50.0114192%" x2="99.7541013%" y2="50.0114192%" id="linearGradient-2">
            <stop stop-color="#42E4FF" offset="0%"></stop>
            <stop stop-color="#3E85FF" offset="100%"></stop>
        </linearGradient>
        <linearGradient x1="0.0444241316%" y1="49.9859706%" x2="100.041316%" y2="49.9859706%" id="linearGradient-3">
            <stop stop-color="#3E85FF" offset="0%"></stop>
            <stop stop-color="#42E4FF" offset="100%"></stop>
        </linearGradient>
        <linearGradient x1="0.130742049%" y1="49.953719%" x2="100.064664%" y2="49.953719%" id="linearGradient-4">
            <stop stop-color="#42E4FF" offset="0%"></stop>
            <stop stop-color="#3E85FF" offset="100%"></stop>
        </linearGradient>
    </defs>
    <g id="上传" stroke="none" stroke-width="1" fill="none" fill-rule="evenodd">
        <g id="画板" transform="translate(-2971.000000, -2685.000000)">
            <g id="编组-71" transform="translate(2971.000000, 2685.000000)">
                <g id="编组-41">
                    <rect id="矩形备份-27" x="0.126805778" y="0.125773196" width="1000" height="1000"></rect>
                    <rect id="矩形" fill="#4164E0" fill-rule="nonzero" x="506.844302" y="548.098969" width="104.783307" height="215.278351"></rect>
                    <path d="M704.841091,765.125773 L413.630819,765.125773 L413.630819,765.125773 C431.094703,731.905155 465.367576,711.142268 502.696629,711.142268 L615.556982,711.142268 C653.104334,711.142268 687.377207,731.905155 704.841091,765.125773 L704.841091,765.125773 Z" id="路径" fill="#0D439B" fill-rule="nonzero"></path>
                    <path d="M881.444623,677.703093 L237.027287,677.703093 C227.640449,677.703093 220,670.053608 220,660.65567 L220,253.047423 C220,243.649485 227.640449,236 237.027287,236 L881.226324,236 C890.613162,236 898.253612,243.649485 898.253612,253.047423 L898.253612,660.65567 C898.253612,670.053608 890.831461,677.703093 881.444623,677.703093 Z" id="路径" fill="#448BFF" fill-rule="nonzero"></path>
                    <path d="M864.853933,628.309278 L253.617978,628.309278 C249.033708,628.309278 245.104334,624.593814 245.104334,619.785567 L245.104334,268.783505 C245.104334,264.193814 248.815409,260.259794 253.617978,260.259794 L864.853933,260.259794 C869.438202,260.259794 873.367576,263.975258 873.367576,268.783505 L873.367576,619.785567 C873.367576,624.375258 869.656501,628.309278 864.853933,628.309278 Z" id="路径" fill="#FFFFFF" fill-rule="nonzero"></path>
                </g>
                <g id="编组-131备份" transform="translate(128.126806, 235.125773)">
                    <g id="编组-87备份" transform="translate(91.000000, 0.000000)">
                        <g id="编组"></g>
                        <path d="M624.333868,60.7587629 C624.333868,56.8247423 621.277689,53.5463918 617.348315,53.5463918 C557.971108,52.6721649 454.715891,33.2206186 382.24077,54.6391753 C378.966292,55.5134021 357.573034,55.5134021 354.516854,54.6391753 C282.041734,33.2206186 178.786517,52.4536082 119.40931,53.5463918 C115.479936,53.5463918 112.423756,56.8247423 112.423756,60.7587629 L111.332263,343.134021 C111.332263,347.068041 114.388443,350.346392 118.317817,350.346392 C118.317817,350.346392 275.929374,325.212371 354.516854,335.921649 C357.791332,336.358763 380.930979,336.140206 382.24077,335.921649 C460.82825,325.430928 618.439807,350.346392 618.439807,350.346392 C622.369181,350.346392 625.425361,347.068041 625.425361,343.134021 L624.333868,60.7587629 Z" id="路径" fill="url(#linearGradient-1)" fill-rule="nonzero"></path>
                        <g id="编组" transform="translate(128.704655, 53.453608)" fill-rule="nonzero">
                            <path d="M260.521669,20.2 C260.521669,20.2 300.906902,2.49690722 315.532905,44.6783505 C330.158909,87.0783505 367.487961,203.569072 446.512039,230.670103 C446.512039,230.670103 438.434992,219.960825 436.033708,213.841237 C436.033708,213.841237 451.751204,214.715464 454.807384,213.841237 C454.807384,213.841237 389.972713,201.383505 352.425361,106.96701 C327.757624,44.6783505 315.314607,-36.1876289 234.544141,18.6701031 C234.325843,18.4515464 255.064205,18.014433 260.521669,20.2 Z" id="路径" fill="#FF5E98"></path>
                            <rect id="矩形" fill="#D0DAE1" x="241.093098" y="17.3587629" width="16.1540931" height="252.43299"></rect>
                            <g transform="translate(0.000000, 2.185567)">
                                <g>
                                    <path d="M15.1540931,281.593814 C15.1540931,281.593814 161.850722,258.645361 234.980738,268.261856 C238.473515,268.698969 241.529695,265.202062 241.529695,261.705155 L241.529695,16.4845361 C241.529695,12.7690722 238.473515,10.8020619 234.980738,9.92783505 C167.526485,-9.74226804 71.4751204,7.96082474 16.2455859,8.83505155 C12.752809,8.83505155 9.69662921,11.8948454 9.69662921,15.3917526 L8.60513644,275.037113 C8.82343499,278.752577 11.6613162,281.593814 15.1540931,281.593814 Z" id="路径" fill="#D0DAE1"></path>
                                    <path d="M11.8796148,275.25567 C11.8796148,275.25567 161.850722,258.645361 234.76244,268.261856 C238.255217,268.698969 241.311396,265.202062 241.311396,261.705155 L241.311396,16.4845361 C241.311396,12.7690722 238.255217,10.8020619 234.76244,9.92783505 C167.308186,-9.74226804 73.2215088,11.2391753 18.2102729,12.1134021 C14.717496,12.1134021 11.6613162,15.1731959 11.6613162,18.6701031 L5.54895666,268.698969 C5.54895666,272.414433 8.38683788,275.25567 11.8796148,275.25567 Z" id="路径" fill="#E6E9ED"></path>
                                    <path d="M237.382022,269.136082 C172.547352,255.585567 6.20385233,269.573196 6.20385233,269.573196 C3.14767255,269.573196 0.746388443,267.169072 0.746388443,264.109278 L0.746388443,21.7298969 C0.746388443,17.7958763 4.02086677,14.7360825 7.95024077,15.1731959 C75.6227929,23.0412371 184.990369,-13.8948454 241.529695,12.3319588 C243.712681,13.4247423 245.24077,15.828866 245.24077,18.2329897 L245.24077,262.579381 C245.022472,266.731959 241.311396,269.791753 237.382022,269.136082 Z" id="路径" fill="#FFFFFF"></path>
                                    <g transform="translate(153.991974, 142.061856)">
                                        <path d="M62.4333868,5.77525773 L62.2150883,45.5525773 C62.2150883,46.6453608 61.3418941,47.7381443 60.2504013,47.5195876 C39.5120385,45.5525773 2.18298555,44.8969072 2.18298555,44.8969072 C1.09149278,44.8969072 0.218298555,44.0226804 0.218298555,42.9298969 L0.218298555,2.71546392 C0.218298555,1.62268041 1.09149278,0.748453608 2.18298555,0.748453608 C2.18298555,0.748453608 31.2166934,-1.4371134 60.4686998,3.58969072 C61.3418941,3.80824742 62.4333868,4.68247423 62.4333868,5.77525773 Z" id="路径" fill="#D0DAE1"></path>
                                        <path d="M60.0321027,26.1010309 L60.0321027,43.585567 C60.0321027,44.6783505 59.1589085,45.5525773 58.0674157,45.5525773 C35.364366,42.9298969 3.27447833,42.9298969 3.27447833,42.9298969 C2.18298555,42.9298969 1.30979133,42.0556701 1.30979133,40.9628866 L1.30979133,38.1216495 L14.4077047,26.3195876 C15.0626003,25.6639175 16.1540931,25.6639175 16.8089888,26.3195876 L26.4141252,36.3731959 C27.0690209,37.028866 28.1605136,37.028866 28.8154093,36.3731959 L48.4622793,14.5175258 C49.117175,13.8618557 50.2086677,13.8618557 50.8635634,14.5175258 L60.0321027,26.1010309 Z" id="路径" fill="#FFFFFF"></path>
                                        <ellipse id="椭圆形" fill="#FFFFFF" cx="13.9711075" cy="12.9876289" rx="6.11235955" ry="6.33814433"></ellipse>
                                    </g>
                                    <g transform="translate(15.280899, 26.226804)" fill="#D7E8EC" id="路径">
                                        <path d="M77.5874799,14.2989691 C76.05939,14.2989691 74.7495987,13.2061856 74.3130016,11.6762887 C73.8764045,9.92783505 75.1861958,8.17938144 76.9325843,7.74226804 C148.53451,-6.46391753 198.52488,4.68247423 200.707865,5.11958763 C202.454254,5.55670103 203.545746,7.30515464 203.109149,9.05360825 C202.672552,10.8020619 200.926164,11.8948454 199.179775,11.6762887 C198.743178,11.457732 148.316212,0.311340206 78.024077,14.2989691 C78.024077,14.2989691 77.8057785,14.2989691 77.5874799,14.2989691 Z"></path>
                                        <path d="M17.5553772,19.5443299 C12.3162119,19.5443299 7.2953451,19.3257732 2.929374,18.6701031 C1.18298555,18.4515464 -0.126805778,16.7030928 0.0914927769,14.9546392 C0.309791332,13.2061856 2.05617978,11.8948454 3.80256822,12.1134021 C21.0481541,14.5175258 54.4478331,10.3649485 54.6661316,10.3649485 C56.4125201,10.1463918 58.1589085,11.457732 58.3772071,13.2061856 C58.5955056,14.9546392 57.2857143,16.7030928 55.5393258,16.9216495 C54.4478331,17.1402062 34.8009631,19.5443299 17.5553772,19.5443299 Z"></path>
                                        <path d="M77.5874799,38.3402062 C76.05939,38.3402062 74.7495987,37.2474227 74.3130016,35.7175258 C73.8764045,33.9690722 75.1861958,32.2206186 76.9325843,31.7835052 C78.6789727,31.3463918 80.6436597,31.1278351 82.8266453,30.4721649 C94.8330658,28.0680412 111.423756,24.571134 122.775281,24.571134 C124.521669,24.571134 126.049759,26.1010309 126.049759,27.8494845 C126.049759,29.5979381 124.521669,31.1278351 122.775281,31.1278351 C112.078652,31.1278351 95.9245586,34.4061856 84.1364366,36.8103093 C81.953451,37.2474227 79.988764,37.6845361 78.2423756,38.1216495 C78.024077,38.1216495 77.8057785,38.3402062 77.5874799,38.3402062 Z"></path>
                                        <path d="M200.05297,35.7175258 C199.834671,35.7175258 199.616372,35.7175258 199.398074,35.7175258 C199.179775,35.7175258 179.751204,31.3463918 148.53451,31.3463918 C148.53451,31.3463918 148.316212,31.3463918 148.316212,31.3463918 C146.569823,31.3463918 145.041734,29.8164948 145.041734,28.0680412 C145.041734,26.3195876 146.569823,24.7896907 148.316212,24.7896907 C148.316212,24.7896907 148.316212,24.7896907 148.53451,24.7896907 C180.624398,24.7896907 200.05297,29.1608247 200.926164,29.3793814 C202.672552,29.8164948 203.764045,31.5649485 203.327448,33.3134021 C202.890851,34.6247423 201.581059,35.7175258 200.05297,35.7175258 Z"></path>
                                        <path d="M17.5553772,43.585567 C12.3162119,43.585567 7.2953451,43.3670103 2.929374,42.7113402 C1.18298555,42.4927835 -0.126805778,40.7443299 0.0914927769,38.9958763 C0.309791332,37.2474227 2.05617978,35.9360825 3.80256822,36.1546392 C21.0481541,38.5587629 54.4478331,34.4061856 54.6661316,34.4061856 C56.4125201,34.1876289 58.1589085,35.4989691 58.3772071,37.2474227 C58.5955056,38.9958763 57.2857143,40.7443299 55.5393258,40.9628866 C54.4478331,41.1814433 34.8009631,43.585567 17.5553772,43.585567 Z"></path>
                                        <path d="M77.5874799,62.1628866 C76.05939,62.1628866 74.7495987,61.0701031 74.3130016,59.5402062 C73.8764045,57.7917526 75.1861958,56.043299 76.9325843,55.6061856 C82.1717496,54.5134021 87.4109149,53.6391753 92.4317817,52.7649485 C94.1781701,52.5463918 95.9245586,53.6391753 96.1428571,55.6061856 C96.3611557,57.3546392 95.2696629,59.1030928 93.3049759,59.5402062 C88.2841091,60.414433 83.0449438,61.2886598 78.024077,62.1628866 C78.024077,62.1628866 77.8057785,62.1628866 77.5874799,62.1628866 Z"></path>
                                        <path d="M200.05297,59.7587629 C199.834671,59.7587629 199.616372,59.7587629 199.398074,59.7587629 C198.961477,59.7587629 161.414125,51.2350515 106.184591,57.7917526 C104.438202,58.0103093 102.691814,56.6989691 102.473515,54.9505155 C102.255217,53.2020619 103.565008,51.4536082 105.311396,51.2350515 C161.632424,44.4597938 199.179775,52.7649485 200.707865,53.2020619 C202.454254,53.6391753 203.545746,55.3876289 203.109149,57.1360825 C202.890851,58.6659794 201.581059,59.7587629 200.05297,59.7587629 Z"></path>
                                        <path d="M17.5553772,67.6268041 C12.3162119,67.6268041 7.2953451,67.4082474 2.929374,66.7525773 C1.18298555,66.5340206 -0.126805778,64.785567 0.0914927769,63.0371134 C0.309791332,61.2886598 2.05617978,59.9773196 3.80256822,60.1958763 C21.0481541,62.6 54.4478331,58.4474227 54.6661316,58.4474227 C56.4125201,58.228866 58.1589085,59.5402062 58.3772071,61.2886598 C58.5955056,63.0371134 57.2857143,64.785567 55.5393258,65.0041237 C54.4478331,65.0041237 34.8009631,67.6268041 17.5553772,67.6268041 Z"></path>
                                        <path d="M77.5874799,86.2041237 C76.05939,86.2041237 74.7495987,85.3298969 74.3130016,83.8 C73.8764045,82.0515464 74.7495987,80.0845361 76.4959872,79.6474227 C96.7977528,73.7463918 126.049759,70.9051546 151.154093,72.2164948 C152.900482,72.2164948 154.428571,73.9649485 154.210273,75.7134021 C154.210273,77.4618557 152.682183,78.9917526 150.717496,78.9917526 C126.268058,77.6804124 97.670947,80.5216495 78.2423756,86.2041237 C78.2423756,86.2041237 77.8057785,86.2041237 77.5874799,86.2041237 Z"></path>
                                        <path d="M200.05297,83.5814433 C199.834671,83.5814433 199.616372,83.5814433 199.398074,83.5814433 C199.398074,83.5814433 189.138042,81.1773196 171.674157,79.8659794 C169.927769,79.6474227 168.399679,78.1175258 168.617978,76.3690722 C168.836276,74.6206186 170.364366,73.0907216 172.110754,73.3092784 C190.011236,74.6206186 200.489567,77.0247423 200.926164,77.0247423 C202.672552,77.4618557 203.764045,79.2103093 203.327448,80.9587629 C202.890851,82.7072165 201.581059,83.5814433 200.05297,83.5814433 Z"></path>
                                        <path d="M16.4638844,91.6680412 C11.2247191,91.6680412 7.07704655,91.4494845 2.929374,90.7938144 C1.18298555,90.5752577 -0.126805778,88.8268041 0.0914927769,87.0783505 C0.309791332,85.3298969 2.05617978,84.0185567 3.80256822,84.2371134 C9.47833066,85.1113402 15.1540931,85.3298969 23.6677368,84.8927835 C25.6324238,84.8927835 26.9422151,86.2041237 27.1605136,88.171134 C27.1605136,89.9195876 25.8507223,91.6680412 23.8860353,91.6680412 C21.2664526,91.6680412 18.8651685,91.6680412 16.4638844,91.6680412 Z"></path>
                                        <path d="M35.4558587,90.7938144 C33.7094703,90.7938144 32.1813804,89.4824742 32.1813804,87.7340206 C31.9630819,85.985567 33.4911717,84.2371134 35.2375602,84.2371134 C45.9341894,83.5814433 54.6661316,82.2701031 54.6661316,82.2701031 C56.4125201,82.0515464 58.1589085,83.3628866 58.3772071,85.1113402 C58.5955056,86.8597938 57.2857143,88.6082474 55.5393258,88.8268041 C55.5393258,88.8268041 46.5890851,89.9195876 35.6741573,90.7938144 C35.6741573,90.7938144 35.6741573,90.7938144 35.4558587,90.7938144 Z"></path>
                                        <path d="M17.3370787,139.531959 C11.6613162,139.531959 6.85874799,139.313402 2.929374,138.657732 C1.18298555,138.439175 -0.126805778,136.690722 0.0914927769,134.942268 C0.309791332,133.193814 2.05617978,131.882474 3.80256822,132.101031 C10.3515249,132.975258 20.1749599,133.193814 32.399679,132.319588 C34.1460674,132.101031 35.8924559,133.630928 35.8924559,135.379381 C36.1107544,137.127835 34.5826645,138.876289 32.8362761,138.876289 C27.1605136,139.313402 21.9213483,139.531959 17.3370787,139.531959 Z"></path>
                                        <path d="M44.8426966,138.002062 C43.0963082,138.002062 41.7865169,136.690722 41.5682183,134.942268 C41.3499197,133.193814 42.6597111,131.445361 44.6243981,131.226804 C50.7367576,130.571134 54.8844302,130.134021 54.8844302,130.134021 C56.6308186,129.915464 58.3772071,131.226804 58.5955056,132.975258 C58.8138042,134.723711 57.5040128,136.472165 55.7576244,136.690722 C55.5393258,136.690722 51.3916533,137.346392 45.2792937,137.783505 C45.0609952,138.002062 44.8426966,138.002062 44.8426966,138.002062 Z"></path>
                                        <path d="M17.5553772,163.573196 C12.3162119,163.573196 7.2953451,163.354639 2.929374,162.698969 C1.18298555,162.480412 -0.126805778,160.731959 0.0914927769,158.983505 C0.309791332,157.235052 2.05617978,155.923711 3.80256822,156.142268 C21.0481541,158.546392 54.4478331,154.393814 54.6661316,154.393814 C56.4125201,154.175258 58.1589085,155.486598 58.3772071,157.235052 C58.5955056,158.983505 57.2857143,160.731959 55.5393258,160.950515 C54.4478331,160.950515 34.8009631,163.573196 17.5553772,163.573196 Z"></path>
                                        <path d="M77.5874799,188.707216 C76.05939,188.707216 74.7495987,187.614433 74.3130016,186.084536 C73.8764045,184.336082 75.1861958,182.587629 76.9325843,182.150515 C86.5377207,180.183505 96.3611557,178.653608 105.966292,177.560825 C107.712681,177.342268 109.459069,178.653608 109.677368,180.402062 C109.895666,182.150515 108.585875,183.898969 106.839486,184.117526 C97.4526485,185.210309 87.847512,186.740206 78.2423756,188.707216 C78.024077,188.707216 77.8057785,188.707216 77.5874799,188.707216 Z"></path>
                                        <path d="M200.05297,186.303093 C199.834671,186.303093 199.616372,186.303093 199.398074,186.303093 C199.179775,186.303093 171.892456,180.183505 129.979133,182.369072 C128.014446,182.587629 126.704655,181.057732 126.486356,179.090722 C126.486356,177.342268 127.796148,175.593814 129.542536,175.593814 C172.547352,173.408247 199.616372,179.527835 200.707865,179.746392 C202.454254,180.183505 203.545746,181.931959 203.109149,183.680412 C202.890851,185.210309 201.581059,186.303093 200.05297,186.303093 Z"></path>
                                        <path d="M14.717496,194.171134 C14.717496,194.171134 14.717496,194.171134 14.717496,194.171134 C10.1332263,194.171134 6.20385233,193.734021 2.929374,193.296907 C1.18298555,193.078351 -0.126805778,191.329897 0.0914927769,189.581443 C0.309791332,187.83299 2.05617978,186.521649 3.80256822,186.740206 C6.85874799,187.17732 10.5698234,187.395876 14.717496,187.395876 C16.4638844,187.395876 17.9919743,188.925773 17.9919743,190.892784 C17.9919743,192.641237 16.4638844,194.171134 14.717496,194.171134 Z"></path>
                                        <path d="M33.9277689,193.515464 C32.1813804,193.515464 30.6532905,192.204124 30.6532905,190.45567 C30.434992,188.707216 31.9630819,186.958763 33.7094703,186.958763 C45.0609952,186.303093 54.6661316,184.991753 54.6661316,184.991753 C56.4125201,184.773196 58.1589085,186.084536 58.3772071,187.83299 C58.5955056,189.581443 57.2857143,191.329897 55.5393258,191.548454 C55.5393258,191.548454 45.7158909,192.859794 34.1460674,193.515464 C34.1460674,193.515464 33.9277689,193.515464 33.9277689,193.515464 Z"></path>
                                        <path d="M77.5874799,212.748454 C76.05939,212.748454 74.7495987,211.65567 74.3130016,210.125773 C73.8764045,208.37732 75.1861958,206.628866 76.9325843,206.191753 C148.53451,191.985567 198.52488,203.131959 200.707865,203.569072 C202.454254,204.006186 203.545746,205.754639 203.109149,207.503093 C202.672552,209.251546 200.926164,210.34433 199.179775,210.125773 C198.743178,209.907216 148.316212,198.760825 78.024077,212.748454 C78.024077,212.748454 77.8057785,212.748454 77.5874799,212.748454 Z"></path>
                                        <path d="M77.5874799,157.016495 C76.2776886,157.016495 74.9678973,156.142268 74.5313002,154.612371 C73.8764045,152.863918 74.9678973,150.896907 76.7142857,150.459794 C77.5874799,150.241237 98.7624398,143.465979 123.211878,144.558763 C124.958266,144.558763 126.486356,146.307216 126.268058,148.05567 C126.268058,149.804124 124.739968,151.334021 122.775281,151.334021 C99.635634,150.241237 78.8972713,156.797938 78.6789727,157.016495 C78.2423756,157.016495 78.024077,157.016495 77.5874799,157.016495 Z"></path>
                                        <path d="M79.3338684,133.193814 C78.024077,133.193814 76.7142857,132.319588 76.2776886,130.789691 C75.6227929,129.041237 76.7142857,127.074227 78.4606742,126.637113 C79.3338684,126.418557 100.508828,119.643299 124.958266,120.736082 C126.704655,120.736082 128.232745,122.484536 128.014446,124.23299 C128.014446,125.981443 126.486356,127.51134 124.521669,127.51134 C101.382022,126.418557 80.6436597,132.975258 80.4253612,133.193814 C80.2070626,133.193814 79.7704655,133.193814 79.3338684,133.193814 Z"></path>
                                        <path d="M17.5553772,218.212371 C12.3162119,218.212371 7.2953451,217.993814 2.929374,217.338144 C1.18298555,217.119588 -0.126805778,215.371134 0.0914927769,213.62268 C0.309791332,211.874227 2.05617978,210.562887 3.80256822,210.781443 C21.0481541,213.185567 54.4478331,209.03299 54.6661316,209.03299 C56.4125201,208.814433 58.1589085,210.125773 58.3772071,211.874227 C58.5955056,213.62268 57.2857143,215.371134 55.5393258,215.589691 C54.4478331,215.589691 34.8009631,218.212371 17.5553772,218.212371 Z"></path>
                                    </g>
                                </g>
                                <path d="M480.566613,281.593814 C480.566613,281.593814 333.869984,258.645361 260.739968,268.261856 C257.247191,268.698969 254.191011,265.202062 254.191011,261.705155 L254.191011,16.4845361 C254.191011,12.7690722 257.247191,10.8020619 260.739968,9.92783505 C328.194222,-9.74226804 424.245586,7.96082474 479.47512,8.83505155 C482.967897,8.83505155 486.024077,11.8948454 486.024077,15.3917526 L487.11557,275.037113 C487.11557,278.752577 484.05939,281.593814 480.566613,281.593814 Z" id="路径" fill="#D0DAE1"></path>
                                <path d="M483.841091,275.25567 C483.841091,275.25567 333.869984,258.645361 260.958266,268.261856 C257.46549,268.698969 254.40931,265.202062 254.40931,261.705155 L254.40931,16.4845361 C254.40931,12.7690722 257.46549,10.8020619 260.958266,9.92783505 C328.41252,-9.74226804 422.499197,11.2391753 477.510433,12.1134021 C481.00321,12.1134021 484.05939,15.1731959 484.05939,18.6701031 L490.390048,268.480412 C490.17175,272.414433 487.333868,275.25567 483.841091,275.25567 Z" id="路径" fill="#E6E9ED"></path>
                                <path d="M258.338684,269.136082 C323.173355,255.585567 489.516854,269.573196 489.516854,269.573196 C492.573034,269.573196 494.974318,267.169072 494.974318,264.109278 L494.974318,21.7298969 C494.974318,17.7958763 491.699839,14.7360825 487.770465,15.1731959 C420.097913,23.0412371 310.730337,-13.8948454 254.191011,12.3319588 C252.008026,13.4247423 250.479936,15.828866 250.479936,18.2329897 L250.479936,262.579381 C250.698234,266.731959 254.40931,269.791753 258.338684,269.136082 Z" id="路径" fill="#FFFFFF"></path>
                                <g transform="translate(276.239165, 26.226804)" fill="#D7E8EC" id="路径">
                                    <path d="M126.613162,14.2989691 C126.394864,14.2989691 126.176565,14.2989691 125.958266,14.2989691 C55.8844302,0.311340206 5.45746388,11.6762887 4.80256822,11.6762887 C3.05617978,12.1134021 1.30979133,11.0206186 0.873194222,9.05360825 C0.436597111,7.30515464 1.52808989,5.33814433 3.27447833,5.11958763 C5.45746388,4.68247423 55.4478331,-6.46391753 127.049759,7.74226804 C128.796148,8.17938144 130.105939,9.92783505 129.669342,11.6762887 C129.669342,13.2061856 128.141252,14.2989691 126.613162,14.2989691 Z"></path>
                                    <path d="M186.863563,19.5443299 C169.617978,19.5443299 149.752809,16.9216495 148.879615,16.9216495 C147.133226,16.7030928 145.823435,14.9546392 146.041734,13.2061856 C146.260032,11.457732 148.006421,10.1463918 149.752809,10.3649485 C150.189406,10.3649485 183.370787,14.7360825 200.616372,12.1134021 C202.362761,11.8948454 204.109149,13.2061856 204.327448,14.9546392 C204.545746,16.7030928 203.235955,18.4515464 201.489567,18.6701031 C197.123596,19.3257732 192.102729,19.5443299 186.863563,19.5443299 Z"></path>
                                    <path d="M126.613162,38.3402062 C126.394864,38.3402062 126.176565,38.3402062 125.958266,38.3402062 C124.211878,37.9030928 122.247191,37.4659794 120.064205,37.028866 C108.276083,34.6247423 92.1219904,31.3463918 81.4253612,31.3463918 C79.6789727,31.3463918 78.1508828,29.8164948 78.1508828,28.0680412 C78.1508828,26.3195876 79.6789727,24.7896907 81.4253612,24.7896907 C92.776886,24.7896907 109.367576,28.2865979 121.373997,30.6907216 C123.556982,31.1278351 125.521669,31.5649485 127.268058,32.0020619 C129.014446,32.4391753 130.324238,34.1876289 129.88764,35.9360825 C129.669342,37.028866 128.141252,38.3402062 126.613162,38.3402062 Z"></path>
                                    <path d="M4.14767255,35.7175258 C2.61958266,35.7175258 1.30979133,34.6247423 0.873194222,33.0948454 C0.436597111,31.3463918 1.52808989,29.3793814 3.27447833,29.1608247 C4.14767255,28.942268 23.576244,24.571134 55.6661316,24.571134 C55.6661316,24.571134 55.6661316,24.571134 55.8844302,24.571134 C57.6308186,24.571134 59.1589085,26.1010309 59.1589085,27.8494845 C59.1589085,29.5979381 57.6308186,31.1278351 55.8844302,31.1278351 C55.8844302,31.1278351 55.8844302,31.1278351 55.6661316,31.1278351 C24.4494382,31.1278351 5.02086677,35.4989691 4.80256822,35.4989691 C4.80256822,35.7175258 4.36597111,35.7175258 4.14767255,35.7175258 Z"></path>
                                    <path d="M186.863563,43.585567 C169.617978,43.585567 149.752809,40.9628866 148.879615,40.9628866 C147.133226,40.7443299 145.823435,38.9958763 146.041734,37.2474227 C146.260032,35.4989691 148.006421,34.1876289 149.752809,34.4061856 C150.189406,34.4061856 183.370787,38.7773196 200.616372,36.1546392 C202.362761,35.9360825 204.109149,37.2474227 204.327448,38.9958763 C204.545746,40.7443299 203.235955,42.4927835 201.489567,42.7113402 C197.123596,43.3670103 192.102729,43.585567 186.863563,43.585567 Z"></path>
                                    <path d="M126.613162,62.1628866 C126.394864,62.1628866 126.176565,62.1628866 125.958266,62.1628866 C120.9374,61.0701031 115.698234,60.1958763 110.677368,59.5402062 C108.930979,59.3216495 107.621188,57.5731959 107.839486,55.6061856 C108.057785,53.6391753 109.804173,52.5463918 111.550562,52.7649485 C116.789727,53.6391753 122.028892,54.5134021 127.049759,55.6061856 C128.796148,56.043299 130.105939,57.7917526 129.669342,59.5402062 C129.669342,61.0701031 128.141252,62.1628866 126.613162,62.1628866 Z"></path>
                                    <path d="M4.14767255,59.7587629 C2.61958266,59.7587629 1.30979133,58.6659794 0.873194222,57.1360825 C0.436597111,55.3876289 1.52808989,53.4206186 3.27447833,53.2020619 C4.80256822,52.7649485 42.3499197,44.4597938 98.670947,51.2350515 C100.417335,51.4536082 101.727127,53.2020619 101.508828,54.9505155 C101.29053,56.6989691 99.5441413,58.0103093 97.7977528,57.7917526 C42.5682183,51.2350515 5.02086677,59.5402062 4.58426966,59.7587629 C4.80256822,59.7587629 4.36597111,59.7587629 4.14767255,59.7587629 Z"></path>
                                    <path d="M186.863563,67.6268041 C169.617978,67.6268041 149.752809,65.0041237 148.879615,65.0041237 C147.133226,64.785567 145.823435,63.0371134 146.041734,61.2886598 C146.260032,59.5402062 148.006421,58.228866 149.752809,58.4474227 C150.189406,58.4474227 183.370787,62.8185567 200.616372,60.1958763 C202.362761,59.9773196 204.109149,61.2886598 204.327448,63.0371134 C204.545746,64.785567 203.235955,66.5340206 201.489567,66.7525773 C197.123596,67.4082474 192.102729,67.6268041 186.863563,67.6268041 Z"></path>
                                    <path d="M126.613162,110.245361 C126.394864,110.245361 126.176565,110.245361 125.958266,110.245361 C120.9374,109.152577 115.698234,108.278351 110.677368,107.62268 C108.930979,107.404124 107.621188,105.65567 107.839486,103.68866 C108.057785,101.721649 109.804173,100.628866 111.550562,100.847423 C116.789727,101.721649 122.028892,102.595876 127.049759,103.68866 C128.796148,104.125773 130.105939,105.874227 129.669342,107.62268 C129.669342,109.152577 128.141252,110.245361 126.613162,110.245361 Z"></path>
                                    <path d="M4.14767255,107.62268 C2.61958266,107.62268 1.30979133,106.529897 0.873194222,105 C0.436597111,103.251546 1.52808989,101.284536 3.27447833,101.065979 C4.80256822,100.628866 42.3499197,92.3237113 98.670947,99.0989691 C100.417335,99.3175258 101.727127,101.065979 101.508828,102.814433 C101.29053,104.562887 99.5441413,105.874227 97.7977528,105.65567 C42.5682183,99.0989691 5.02086677,107.404124 4.58426966,107.62268 C4.80256822,107.62268 4.36597111,107.62268 4.14767255,107.62268 Z"></path>
                                    <path d="M186.863563,115.490722 C169.617978,115.490722 149.752809,112.868041 148.879615,112.868041 C147.133226,112.649485 145.823435,110.901031 146.041734,109.152577 C146.260032,107.404124 148.006421,106.092784 149.752809,106.31134 C150.189406,106.31134 183.370787,110.682474 200.616372,108.059794 C202.362761,107.841237 204.109149,109.152577 204.327448,110.901031 C204.545746,112.649485 203.235955,114.397938 201.489567,114.616495 C197.123596,115.272165 192.102729,115.490722 186.863563,115.490722 Z"></path>
                                    <path d="M126.613162,86.2041237 C126.394864,86.2041237 125.958266,86.2041237 125.739968,85.985567 C106.093098,80.3030928 77.7142857,77.4618557 53.2648475,78.7731959 C51.5184591,78.9917526 49.9903692,77.4618557 49.7720706,75.4948454 C49.7720706,73.7463918 51.081862,71.9979381 52.8282504,71.9979381 C77.9325843,70.6865979 107.402889,73.5278351 127.486356,79.428866 C129.232745,79.8659794 130.324238,81.8329897 129.669342,83.5814433 C129.451043,85.3298969 128.141252,86.2041237 126.613162,86.2041237 Z"></path>
                                    <path d="M4.14767255,83.5814433 C2.61958266,83.5814433 1.30979133,82.4886598 0.873194222,80.9587629 C0.436597111,79.2103093 1.52808989,77.243299 3.27447833,77.0247423 C3.71107544,77.0247423 13.9711075,74.6206186 32.0898876,73.3092784 C33.8362761,73.0907216 35.5826645,74.6206186 35.5826645,76.3690722 C35.5826645,78.1175258 34.2728732,79.8659794 32.5264848,79.8659794 C15.0626003,81.1773196 4.80256822,83.3628866 4.80256822,83.5814433 C4.80256822,83.5814433 4.36597111,83.5814433 4.14767255,83.5814433 Z"></path>
                                    <path d="M187.736758,91.6680412 C185.553772,91.6680412 182.934189,91.6680412 180.314607,91.4494845 C178.568218,91.4494845 177.040128,89.9195876 177.040128,87.9525773 C177.040128,86.2041237 178.568218,84.6742268 180.532905,84.6742268 C189.046549,84.8927835 194.722311,84.8927835 200.398074,84.0185567 C202.144462,83.8 203.890851,85.1113402 204.109149,86.8597938 C204.327448,88.6082474 203.017657,90.356701 201.271268,90.5752577 C197.123596,91.4494845 192.975923,91.6680412 187.736758,91.6680412 Z"></path>
                                    <path d="M168.744783,90.7938144 C168.744783,90.7938144 168.526485,90.7938144 168.526485,90.7938144 C157.611557,89.9195876 148.879615,88.8268041 148.661316,88.8268041 C146.914928,88.6082474 145.605136,86.8597938 145.823435,85.1113402 C146.041734,83.3628866 147.788122,82.0515464 149.53451,82.2701031 C149.53451,82.2701031 158.266453,83.3628866 168.963082,84.2371134 C170.70947,84.4556701 172.23756,85.985567 172.019262,87.7340206 C171.800963,89.4824742 170.491172,90.7938144 168.744783,90.7938144 Z"></path>
                                    <path d="M126.613162,188.707216 C126.394864,188.707216 126.176565,188.707216 125.958266,188.707216 C116.571429,186.740206 106.966292,185.210309 97.3611557,184.117526 C95.6147673,183.898969 94.3049759,182.150515 94.5232745,180.402062 C94.741573,178.653608 96.2696629,177.123711 98.2343499,177.560825 C107.839486,178.653608 117.662921,180.183505 127.268058,182.150515 C129.014446,182.587629 130.324238,184.336082 129.88764,186.084536 C129.669342,187.614433 128.141252,188.707216 126.613162,188.707216 Z"></path>
                                    <path d="M4.14767255,186.303093 C2.61958266,186.303093 1.30979133,185.210309 0.873194222,183.680412 C0.436597111,181.931959 1.52808989,179.964948 3.27447833,179.746392 C4.36597111,179.527835 31.6532905,173.408247 74.4398074,175.593814 C76.1861958,175.593814 77.7142857,177.342268 77.4959872,179.090722 C77.4959872,180.839175 75.9678973,182.369072 74.0032103,182.369072 C32.0898876,180.183505 4.80256822,186.303093 4.58426966,186.303093 C4.80256822,186.303093 4.36597111,186.303093 4.14767255,186.303093 Z"></path>
                                    <path d="M189.483146,194.171134 C187.736758,194.171134 186.208668,192.641237 186.208668,190.892784 C186.208668,189.14433 187.736758,187.614433 189.483146,187.395876 C193.849117,187.395876 197.560193,187.17732 200.398074,186.740206 C202.144462,186.521649 203.890851,187.83299 204.109149,189.581443 C204.327448,191.329897 203.017657,193.078351 201.271268,193.296907 C197.99679,193.734021 194.067416,193.952577 189.483146,194.171134 C189.483146,194.171134 189.483146,194.171134 189.483146,194.171134 Z"></path>
                                    <path d="M170.272873,193.515464 C170.272873,193.515464 170.054575,193.515464 170.054575,193.515464 C158.484751,192.641237 148.879615,191.548454 148.661316,191.548454 C146.914928,191.329897 145.605136,189.581443 145.823435,187.83299 C146.041734,186.084536 147.788122,184.773196 149.53451,184.991753 C149.53451,184.991753 159.139647,186.303093 170.491172,186.958763 C172.23756,187.17732 173.76565,188.707216 173.547352,190.45567 C173.547352,192.204124 172.019262,193.515464 170.272873,193.515464 Z"></path>
                                    <path d="M126.613162,212.748454 C126.394864,212.748454 126.176565,212.748454 125.958266,212.748454 C55.8844302,198.760825 5.45746388,210.125773 4.80256822,210.125773 C3.05617978,210.562887 1.30979133,209.470103 0.873194222,207.503093 C0.436597111,205.754639 1.52808989,203.787629 3.27447833,203.569072 C5.45746388,203.131959 55.4478331,191.985567 127.049759,206.191753 C128.796148,206.628866 130.105939,208.37732 129.669342,210.125773 C129.669342,211.65567 128.141252,212.748454 126.613162,212.748454 Z"></path>
                                    <path d="M186.863563,218.212371 C169.617978,218.212371 149.752809,215.589691 148.879615,215.589691 C147.133226,215.371134 145.823435,213.62268 146.041734,211.874227 C146.260032,210.125773 148.006421,208.814433 149.752809,209.03299 C150.189406,209.03299 183.370787,213.404124 200.616372,210.781443 C202.362761,210.562887 204.109149,211.874227 204.327448,213.62268 C204.545746,215.371134 203.235955,217.119588 201.489567,217.338144 C197.123596,217.993814 192.102729,218.212371 186.863563,218.212371 Z"></path>
                                </g>
                                <ellipse id="椭圆形" fill="#E6E9ED" cx="294.576244" cy="171.878351" rx="16.8089888" ry="17.0474227"></ellipse>
                                <ellipse id="椭圆形" fill="#E6E9ED" cx="345.876404" cy="171.878351" rx="16.8089888" ry="17.0474227"></ellipse>
                                <ellipse id="椭圆形" fill="#E6E9ED" cx="454.807384" cy="179.746392" rx="16.8089888" ry="17.0474227"></ellipse>
                            </g>
                        </g>
                    </g>
                    <g id="编组" transform="translate(0.000000, 110.000000)" fill-rule="nonzero">
                        <path d="M96.4884956,190.692095 C96.4884956,190.692095 125.123009,177.358893 132.554867,170.364427 C139.986726,163.36996 155.506195,127.741897 155.506195,127.741897 L150.478761,120.528854 L157.036283,122.496047 C157.036283,122.496047 163.375221,118.780237 166.872566,115.283004 C170.369912,111.785771 176.053097,104.572727 177.364602,103.698419 C178.676106,102.824111 180.206195,105.009881 179.769027,105.665613 C179.769027,105.665613 182.392035,105.228458 183.047788,105.665613 C183.70354,106.102767 183.484956,108.288538 183.484956,108.288538 C183.484956,108.288538 185.670796,110.037154 185.015044,111.567194 C185.015044,111.567194 185.452212,114.190119 183.70354,116.375889 C181.954867,118.56166 176.927434,126.430435 175.397345,127.086166 C173.867257,127.741897 163.812389,132.550593 163.812389,132.550593 C163.812389,132.550593 150.478761,171.894466 145.014159,178.014625 C139.768142,184.134783 110.69646,205.773913 99.9858407,208.396838 C88.8380531,211.456917 96.4884956,190.692095 96.4884956,190.692095 Z" id="路径" fill="#E6C2BA"></path>
                        <g transform="translate(122.407080, 0.000000)">
                            <path d="M7.30619469,95.6110672 L48.6185841,11.6774704 L110.915044,39.655336 L120.751327,34.1909091 L121.188496,34.8466403 C122.937168,37.9067194 123.59292,41.6225296 123.155752,45.1197628 L123.155752,45.1197628 L77.6902655,145.665217 L3.37168142,112.222925 L8.61769912,97.5782609 L7.30619469,95.6110672 Z" id="路径" fill="url(#linearGradient-2)"></path>
                            <path d="M75.5044248,134.736364 C75.5044248,134.736364 78.7831858,139.763636 77.2530973,143.698024 L4.68318584,110.911462 C4.68318584,110.911462 5.77610619,107.414229 2.06017699,101.294071 L75.5044248,134.736364 Z" id="路径" fill="#FFFFFF"></path>
                            <polygon id="路径" fill="url(#linearGradient-3)" points="0.967256637 101.294071 75.5044248 134.736364 120.532743 33.972332 46.2141593 0.748616601"></polygon>
                            <polygon id="矩形" fill="#FFFFFF" transform="translate(75.084011, 33.738225) rotate(-155.826333) translate(-75.084011, -33.738225) " points="44.0455928 28.1649023 106.122563 28.16416 106.122429 39.3115478 44.0454595 39.31229"></polygon>
                            <polygon id="矩形" fill="#FFFFFF" transform="translate(68.926695, 47.380298) rotate(-155.826333) translate(-68.926695, -47.380298) " points="50.5659437 43.7740096 87.2875316 43.7735705 87.2874454 50.9865862 50.5658575 50.9870252"></polygon>
                        </g>
                        <g transform="translate(0.000000, 119.217391)" id="路径">
                            <path d="M126.653097,87.6494071 C126.653097,87.6494071 155.287611,74.3162055 162.719469,67.3217391 C170.151327,60.3272727 185.670796,24.6992095 185.670796,24.6992095 L180.861947,18.1418972 L187.200885,18.1418972 C187.200885,18.1418972 193.539823,15.9561265 197.037168,12.2403162 C200.534513,8.743083 206.217699,1.53003953 207.529204,0.655731225 C208.840708,-0.218577075 210.370796,1.96719368 209.933628,2.6229249 C209.933628,2.6229249 212.556637,2.18577075 213.212389,2.6229249 C213.868142,3.06007905 213.649558,5.2458498 213.649558,5.2458498 C213.649558,5.2458498 215.835398,6.9944664 215.179646,8.52450593 C215.179646,8.52450593 215.616814,11.1474308 213.868142,13.3332016 C212.119469,15.5189723 207.092035,23.387747 205.561947,24.0434783 C204.031858,24.6992095 193.976991,29.5079051 193.976991,29.5079051 C193.976991,29.5079051 180.643363,68.8517787 175.178761,74.9719368 C169.714159,81.0920949 140.861062,102.731225 130.150442,105.35415 C119.221239,108.414229 126.653097,87.6494071 126.653097,87.6494071 Z" fill="#F1CDC2"></path>
                            <g transform="translate(0.000000, 381.324111)">
                                <path d="M7.74336283,17.5790514 C7.74336283,17.5790514 3.15309735,17.5790514 0.748672566,20.8577075 C-1.65575221,23.9177866 8.18053097,47.0869565 13.6451327,48.616996 C19.1097345,49.9284585 30.0389381,49.7098814 31.1318584,48.616996 C32.2247788,47.5241107 23.9185841,41.8411067 22.1699115,40.3110672 C20.4212389,38.7810277 17.579646,20.8577075 17.579646,20.8577075 L7.74336283,17.5790514 Z" fill="#303333"></path>
                                <path d="M23.4814159,7.52450593 L17.3610619,20.8577075 C17.3610619,20.8577075 20.2026549,36.1581028 18.4539823,37.4695652 C16.9238938,38.7810277 7.52477876,17.5790514 7.52477876,17.5790514 L14.7380531,0.0928853755 L23.4814159,7.52450593 Z" fill="#F1CDC2"></path>
                            </g>
                            <g transform="translate(83.061947, 397.810277)">
                                <path d="M1.62300885,19.4533597 C1.62300885,19.4533597 -0.562831858,27.1035573 0.748672566,28.6335968 C2.27876106,29.9450593 30.4761062,35.1909091 39.000885,33.8794466 C47.5256637,32.5679842 11.240708,18.3604743 11.240708,18.3604743 L1.62300885,19.4533597 Z" fill="#303333"></path>
                                <path d="M14.519469,1.7486166 C14.519469,2.18577075 11.240708,18.5790514 11.240708,18.5790514 C11.240708,18.5790514 23.0442478,22.9505929 24.1371681,24.6992095 C25.2300885,26.4478261 4.02743363,23.16917 1.62300885,19.6719368 C0.748672566,10.2731225 2.7159292,0.8743083 2.7159292,0.8743083 L14.519469,1.7486166 Z" fill="#F1CDC2"></path>
                            </g>
                            <path d="M104.79469,25.1363636 C104.79469,25.1363636 110.259292,29.070751 113.100885,31.4750988 C115.942478,33.8794466 119.002655,34.5351779 119.221239,35.6280632 C119.221239,36.7209486 117.253982,39.1252964 117.253982,39.1252964 C117.253982,39.1252964 121.40708,53.7699605 118.128319,59.2343874 C114.849558,64.6988142 103.046018,67.3217391 96.0513274,65.7916996 C89.2752212,64.2616601 80.5318584,38.2509881 80.5318584,38.2509881 C80.5318584,38.2509881 96.7070796,20.7648221 104.79469,25.1363636 Z" fill="#F1CDC2"></path>
                            <path d="M110.040708,60.983004 C110.040708,60.983004 113.319469,71.6932806 118.346903,76.0648221 C123.155752,80.4363636 108.510619,83.7150198 108.510619,83.7150198 L94.0840708,65.7916996 L110.040708,60.983004 Z" fill="#F1CDC2"></path>
                            <path d="M134.30354,185.35336 C130.369027,178.57747 69.6026549,179.233202 69.6026549,179.233202 L64.1380531,178.140316 C64.1380531,178.140316 47.3070796,208.303953 42.4982301,248.740711 C39.4380531,273.877075 39.000885,323.712648 35.7221239,328.521344 C32.4433628,333.33004 14.519469,375.296838 11.6778761,382.947036 C11.6778761,382.947036 16.4867257,388.411462 25.0115044,391.252964 C25.0115044,391.252964 52.7716814,351.471937 59.1106195,338.138735 C65.4495575,324.805534 83.3734513,248.959289 83.3734513,248.959289 L89.4938053,249.833597 C89.4938053,249.833597 86.2150442,336.171542 85.7778761,346.226087 C85.559292,356.280632 83.3734513,399.996047 83.3734513,399.996047 C83.3734513,399.996047 91.2424779,403.930435 99.1115044,401.30751 C99.1115044,401.30751 128.838938,285.46166 131.680531,270.816996 C134.30354,256.172332 138.238053,191.910672 134.30354,185.35336 Z" fill="#50C2B7"></path>
                            <path d="M107.417699,78.46917 C120.969912,76.9391304 129.49469,78.687747 144.139823,74.7533597 C144.139823,74.7533597 149.385841,93.7695652 159.222124,99.6711462 C159.222124,99.6711462 144.139823,104.042688 137.582301,106.228458 C137.582301,106.228458 149.385841,124.588933 145.232743,133.987747 C141.079646,143.386561 135.177876,158.686957 137.582301,171.801581 C139.986726,184.916206 138.893805,196.063636 138.893805,196.063636 C138.893805,196.063636 75.7230088,194.31502 55.6132743,184.916206 C55.6132743,184.916206 72.8814159,143.605138 74.8486726,121.0917 C76.5973451,98.3596838 96.0513274,79.5620553 107.417699,78.46917 Z" fill="#FFC941"></path>
                            <path d="M52.5530973,44.5897233 C60.4221239,37.3766798 65.6681416,33.2237154 66.3238938,26.6664032 C67.4168142,16.1747036 78.3460177,12.8960474 86.4336283,11.584585 C92.7725664,10.7102767 101.953097,0.655731225 110.477876,6.1201581 C113.756637,8.08735178 114.630973,12.4588933 110.915044,20.1090909 C109.822124,22.5134387 108.292035,24.0434783 106.761947,25.1363636 C104.79469,26.4478261 103.264602,28.1964427 102.390265,30.3822134 C101.734513,31.912253 100.860177,33.4422925 99.5486726,34.7537549 C94.0840708,40.655336 94.739823,46.7754941 99.1115044,49.616996 C103.264602,52.458498 101.515929,60.5458498 99.9858407,64.6988142 C96.7070796,72.5675889 112.445133,76.2833992 108.073451,84.1521739 C103.70177,92.0209486 96.0513274,96.6110672 96.9256637,108.632806 C98.2371681,126.774704 79.8761062,136.392095 65.8867257,139.233597 C49.0557522,142.73083 24.7929204,129.179051 28.9460177,106.009881 C33.9734513,77.8134387 51.460177,73.6604743 49.2743363,67.7588933 C46.8699115,61.8573123 44.6840708,51.5841897 52.5530973,44.5897233 Z" fill="#236CE4"></path>
                        </g>
                        <g transform="translate(13.115044, 95.173913)">
                            <ellipse id="椭圆形" fill="#48BFF4" transform="translate(33.349875, 40.123451) rotate(127.344315) translate(-33.349875, -40.123451) " cx="33.3498747" cy="40.1234505" rx="25.3550943" ry="2.8415432"></ellipse>
                            <path d="M57.3619469,57.0486166 C48.8371681,68.1960474 38.7823009,76.9391304 38.7823009,76.9391304 L18.0168142,60.3272727 L48.8371681,19.8905138 L69.8212389,35.8466403 C69.8212389,36.0652174 65.8867257,45.9011858 57.3619469,57.0486166 Z" id="路径" fill="#310078"></path>
                            <g transform="translate(4.371681, 65.573123)" fill="#FF5E98">
                                <path d="M1.62300885,30.3822134 L5.99469027,26.4478261 C5.99469027,26.4478261 5.99469027,26.4478261 5.99469027,26.4478261 C5.99469027,26.4478261 5.99469027,26.4478261 5.99469027,26.4478261 C5.99469027,26.4478261 5.99469027,26.4478261 5.99469027,26.4478261 C5.99469027,26.4478261 5.99469027,26.4478261 5.99469027,26.4478261 C5.99469027,26.4478261 5.99469027,26.4478261 5.99469027,26.4478261 C5.99469027,26.4478261 5.99469027,26.4478261 5.99469027,26.4478261 C5.99469027,26.4478261 5.99469027,26.4478261 5.99469027,26.4478261 C5.99469027,26.4478261 5.99469027,26.4478261 5.99469027,26.4478261 C5.99469027,26.4478261 5.99469027,26.4478261 5.99469027,26.4478261 C5.99469027,26.4478261 5.99469027,26.4478261 5.99469027,26.4478261 C5.99469027,26.4478261 5.99469027,26.4478261 5.99469027,26.4478261 C5.99469027,26.4478261 5.99469027,26.4478261 5.99469027,26.4478261 C5.99469027,26.4478261 5.99469027,26.4478261 5.99469027,26.4478261 C5.99469027,26.4478261 5.99469027,26.4478261 5.99469027,26.4478261 C5.99469027,26.4478261 5.99469027,26.4478261 5.99469027,26.4478261 C5.99469027,26.4478261 5.99469027,26.4478261 5.99469027,26.4478261 C5.99469027,26.4478261 5.99469027,26.4478261 5.99469027,26.4478261 C5.99469027,26.4478261 5.99469027,26.4478261 5.99469027,26.4478261 C5.99469027,26.4478261 5.99469027,26.4478261 5.99469027,26.4478261 L5.99469027,26.4478261 C5.99469027,26.4478261 5.99469027,26.4478261 5.99469027,26.4478261 C5.99469027,26.4478261 5.99469027,26.4478261 5.99469027,26.4478261 C5.99469027,26.4478261 5.99469027,26.4478261 5.99469027,26.4478261 C5.99469027,26.4478261 5.99469027,26.4478261 5.99469027,26.4478261 C5.99469027,26.4478261 5.99469027,26.4478261 5.99469027,26.4478261 C5.99469027,26.4478261 5.99469027,26.4478261 5.99469027,26.4478261 C5.99469027,26.4478261 5.99469027,26.4478261 5.99469027,26.4478261 C5.99469027,26.4478261 5.99469027,26.4478261 5.99469027,26.4478261 C5.99469027,26.4478261 5.99469027,26.4478261 5.99469027,26.4478261 C5.99469027,26.4478261 5.99469027,26.4478261 5.99469027,26.4478261 C5.99469027,26.4478261 5.99469027,26.4478261 5.99469027,26.4478261 C5.99469027,26.4478261 5.99469027,26.4478261 5.99469027,26.4478261 C5.99469027,26.4478261 5.99469027,26.4478261 5.99469027,26.4478261 C5.99469027,26.4478261 5.99469027,26.4478261 5.99469027,26.4478261 C5.99469027,26.4478261 5.99469027,26.4478261 5.99469027,26.4478261 C5.99469027,26.4478261 5.99469027,26.4478261 5.99469027,26.4478261 C5.99469027,26.4478261 5.99469027,26.4478261 5.99469027,26.4478261 C5.99469027,26.4478261 5.99469027,26.4478261 5.99469027,26.4478261 C5.99469027,26.4478261 5.99469027,26.4478261 5.99469027,26.4478261 C5.99469027,26.4478261 5.99469027,26.4478261 5.99469027,26.4478261 C5.99469027,26.4478261 5.99469027,26.4478261 5.99469027,26.4478261 C5.99469027,26.4478261 5.99469027,26.4478261 5.99469027,26.4478261 C5.99469027,26.4478261 5.99469027,26.4478261 5.99469027,26.4478261 C5.99469027,26.4478261 5.99469027,26.4478261 5.99469027,26.4478261 C5.99469027,26.4478261 5.99469027,26.4478261 5.99469027,26.4478261 C5.99469027,26.4478261 5.99469027,26.4478261 5.99469027,26.4478261 C5.99469027,26.4478261 5.99469027,26.4478261 5.99469027,26.4478261 C5.99469027,26.4478261 5.99469027,26.4478261 5.99469027,26.4478261 C5.99469027,26.4478261 5.99469027,26.4478261 5.99469027,26.4478261 C5.99469027,26.4478261 5.99469027,26.4478261 5.99469027,26.4478261 C5.99469027,26.4478261 5.99469027,26.4478261 5.99469027,26.4478261 C5.99469027,26.4478261 5.99469027,26.4478261 5.99469027,26.4478261 L9.05486726,31.4750988 C9.27345133,31.6936759 9.05486726,31.912253 8.83628319,32.13083 C8.83628319,32.13083 8.61769912,32.13083 8.61769912,32.13083 C8.39911504,32.13083 8.39911504,32.13083 8.39911504,31.912253 L7.74336283,30.8193676 L8.18053097,31.912253 C8.18053097,32.13083 8.18053097,32.3494071 7.9619469,32.3494071 C7.9619469,32.3494071 7.74336283,32.3494071 7.74336283,32.3494071 C7.52477876,32.3494071 7.52477876,32.13083 7.52477876,32.13083 L7.08761062,31.0379447 L7.30619469,32.13083 C7.30619469,32.3494071 7.30619469,32.5679842 7.08761062,32.5679842 C7.08761062,32.5679842 7.08761062,32.5679842 6.86902655,32.5679842 C6.65044248,32.5679842 6.65044248,32.3494071 6.43185841,32.13083 L6.21327434,31.0379447 L6.21327434,32.3494071 C6.21327434,32.5679842 5.99469027,32.7865613 5.77610619,32.7865613 C5.77610619,32.7865613 5.77610619,32.7865613 5.77610619,32.7865613 C5.55752212,32.7865613 5.33893805,32.5679842 5.33893805,32.3494071 L5.33893805,31.0379447 L5.12035398,32.13083 C5.12035398,32.3494071 4.90176991,32.5679842 4.68318584,32.5679842 C4.46460177,32.5679842 4.2460177,32.3494071 4.2460177,32.13083 L4.46460177,31.0379447 L4.02743363,32.13083 C4.02743363,32.3494071 3.80884956,32.3494071 3.59026549,32.3494071 C3.59026549,32.3494071 3.59026549,32.3494071 3.59026549,32.3494071 C3.37168142,32.3494071 3.15309735,32.13083 3.37168142,31.912253 L3.80884956,30.8193676 L3.15309735,31.912253 C3.15309735,32.13083 2.93451327,32.13083 2.7159292,32.13083 C2.7159292,32.13083 2.7159292,32.13083 2.49734513,32.13083 C2.27876106,32.13083 2.27876106,31.6936759 2.27876106,31.4750988 L2.93451327,30.3822134 L2.27876106,31.2565217 C2.27876106,31.4750988 2.06017699,31.4750988 1.84159292,31.4750988 C1.84159292,31.4750988 1.62300885,31.4750988 1.62300885,31.4750988 C1.40442478,31.2565217 1.40442478,31.0379447 1.62300885,30.8193676 L2.27876106,29.9450593 L1.40442478,30.8193676 C1.40442478,30.8193676 1.18584071,31.0379447 0.967256637,30.8193676 C0.967256637,30.8193676 0.748672566,30.8193676 0.748672566,30.6007905 C1.40442478,30.8193676 1.40442478,30.6007905 1.62300885,30.3822134 Z" id="路径"></path>
                                <path d="M9.27345133,1.31146245 C9.27345133,1.31146245 9.27345133,1.53003953 9.27345133,1.53003953 L5.33893805,26.4478261 L6.86902655,26.6664032 L10.8035398,1.7486166 C11.240708,0.43715415 9.27345133,0.8743083 9.27345133,1.31146245 Z" id="路径"></path>
                                <ellipse id="椭圆形" cx="6.21327434" cy="26.6664032" rx="1.74867257" ry="1.7486166"></ellipse>
                            </g>
                            <polygon id="路径" fill="url(#linearGradient-4)" points="46.2141593 49.398419 2.49734513 80.2177866 0.967256637 78.9063241 3.80884956 75.4090909 4.02743363 74.7533597 4.46460177 73.0047431 18.2353982 30.6007905 59.9849558 3.4972332 61.2964602 0.8743083 62.8265487 1.96719368"></polygon>
                            <polygon id="路径" fill="#310078" points="16.7053097 29.2893281 0.967256637 78.9063241 44.6840708 48.0869565 61.2964602 0.8743083"></polygon>
                        </g>
                    </g>
                </g>
            </g>
        </g>
    </g>
</svg>